# xmcd CD database file
#
# Track frame offsets:
#	150
#	10281
#	22686
#	40143
#	56246
#	66356
#	77114
#	96227
#	119165
#	136675
#	142915
#	154962
#	177884
#	196644
#	214887
#
# Disc length: 3019 seconds
#
# Revision: 0
# Processed by: cddbd v1.5.2PL0 Copyright (c) Steve Scherf et al.
# Submitted via: CDex 1.70beta2
#
DISCID=cd0bc90f
DTITLE=Merle Haggard - Mama Tried
DYEAR=2003
DGENRE=Country
TTITLE0=Mama Tried
TTITLE1=Kern River
TTITLE2=I Think I'll Just Stay Here and Drink
TTITLE3=Today I Started Loving You Again
TTITLE4=This Morning This Evenin' So Soon
TTITLE5=Ida Red
TTITLE6=Honky Tonk Night Time Man
TTITLE7=If I Could Only Fly
TTITLE8=The Chill Factor
TTITLE9=The Fightin Side Of Me
TTITLE10=I Knew The Moment I Lost You
TTITLE11=When Times Were Good
TTITLE12=Footlights
TTITLE13=Mama's Hungry Eyes
TTITLE14=Okie From Muskogee
EXTD=YEAR: 2003
EXTT0=
EXTT1=
EXTT2=
EXTT3=
EXTT4=
EXTT5=
EXTT6=
EXTT7=
EXTT8=
EXTT9=
EXTT10=
EXTT11=
EXTT12=
EXTT13=
EXTT14=
PLAYORDER=
